<svg width="48" height="48" viewBox="0 0 48 48" fill="none" xmlns="http://www.w3.org/2000/svg">
<path d="M24 48C37.2548 48 48 37.2548 48 24C48 10.7452 37.2548 0 24 0C10.7452 0 0 10.7452 0 24C0 37.2548 10.7452 48 24 48Z" fill="white"/>
<path d="M23.9952 12.2906C17.3624 12.2906 11.9905 17.6672 11.9905 24.2953C11.9905 29.6016 15.4311 34.1016 20.1983 35.6859C20.7983 35.7984 21.0186 35.4281 21.0186 35.1094C21.0186 34.8234 21.0092 34.0687 21.0045 33.0703C17.667 33.7969 16.9592 31.4578 16.9592 31.4578C16.4108 30.0703 15.6233 29.7 15.6233 29.7C14.5358 28.9547 15.7077 28.9687 15.7077 28.9687C16.9124 29.0531 17.5452 30.2062 17.5452 30.2062C18.6139 32.0437 20.3577 31.5141 21.042 31.2047C21.1499 30.4266 21.4592 29.8969 21.8014 29.5969C19.1342 29.2969 16.3311 28.2656 16.3311 23.6625C16.3311 22.35 16.7952 21.2812 17.5686 20.4422C17.4327 20.1375 17.0295 18.9187 17.6717 17.2641C17.6717 17.2641 18.6795 16.9406 20.9717 18.4969C21.9327 18.2297 22.9545 18.0984 23.9717 18.0937C24.9936 18.0984 26.0108 18.2297 26.9717 18.4969C29.2545 16.9453 30.2577 17.2641 30.2577 17.2641C30.9045 18.9187 30.4967 20.1375 30.3795 20.4422C31.1436 21.2812 31.6124 22.3547 31.6124 23.6625C31.6124 28.275 28.8045 29.2922 26.1327 29.5875C26.5545 29.9484 26.9436 30.6844 26.9436 31.8094C26.9436 33.4172 26.9295 34.7062 26.9295 35.0953C26.9295 35.4094 27.1405 35.7844 27.7545 35.6672C32.5639 34.0969 35.9999 29.5969 35.9999 24.2953C35.9999 17.6672 30.6233 12.2906 23.9952 12.2906Z" fill="#111111"/>
</svg>
